<?xml version="1.0" encoding="iso-8859-1"?>
<!-- Generator: Adobe Illustrator 21.1.0, SVG Export Plug-In . SVG Version: 6.00 Build 0)  -->
<svg version="1.1" id="Layer_1" xmlns="http://www.w3.org/2000/svg" xmlns:xlink="http://www.w3.org/1999/xlink" x="0px" y="0px"
	 viewBox="0 0 24 24" enable-background="new 0 0 24 24" xml:space="preserve">
<g>
	<path fill="#303C42" d="M23.9658203,23.3188171l-3.5-9.000001c-0.1484375-0.3847656-0.7832031-0.3847656-0.9316406,0
		L19.229126,15.103179C17.22229,14.1090994,14.2611694,12.9999685,11,12.9999685
		c-3.4267583,0-6.5351567,1.2260742-8.5390625,2.2548828c-1.5175781,0.7792978-2.4609375,2.3173838-2.4609375,4.0131845v0.7319336
		c0,1.1030273,0.8974609,2,2,2h14.5470581l-0.5128784,1.3188477c-0.0693359,0.1767578-0.03125,0.3774414,0.0966797,0.5180664
		c0.1269531,0.140625,0.3232422,0.1958008,0.5068359,0.144043L20,23.019989l3.3623047,0.9609375
		c0.0458984,0.0126953,0.0917969,0.019043,0.1376953,0.019043c0.1386719,0,0.2734375-0.0576172,0.3691406-0.1630859
		C23.9970703,23.6962585,24.0351563,23.495575,23.9658203,23.3188171z"/>
	<path fill="#3D82C4" d="M1.9999996,20.9999695c-0.5517578,0-1-0.4487305-1-1v-0.7319336
		c0-1.3193359,0.7353516-2.5161133,1.9179688-3.1235352C4.8232417,15.1659842,7.7724605,13.9999685,11,13.9999685
		c3.0806885,0,5.897644,1.0615845,7.8631592,2.0443735l-1.9271851,4.9556274H1.9999996z"/>
	<path fill="#D32E2E" d="M20.1376953,22.0190125C20.0927734,22.0063171,20.0458984,21.9999695,20,21.9999695
		s-0.0927734,0.0063477-0.1376953,0.019043l-2.53125,0.7236328L20,15.8793631l2.6689453,6.8632822L20.1376953,22.0190125z"/>
	<circle fill="#303C42" cx="11" cy="5.999969" r="6"/>
	<g>
		<circle fill="#3D82C4" cx="11" cy="5.999969" r="5"/>
		<path opacity="0.1" fill="#010101" d="M13.680481,1.7936091C13.8762817,2.3284602,14,2.8981624,14,3.499969
			c0,2.7568359-2.2431641,4.9999995-5,4.9999995c-0.987915,0-1.9040532-0.2971191-2.6804814-0.7936397
			C7.0206904,9.6216116,8.8449707,10.9999685,11,10.9999685c2.7568359,0,5-2.2431641,5-4.9999995
			C16,4.2310481,15.0706177,2.6826472,13.680481,1.7936091z"/>
	</g>
	<linearGradient id="SVGID_1_" gradientUnits="userSpaceOnUse" x1="2.9227102" y1="9.1251707" x2="25.783556" y2="19.7853584">
		<stop  offset="0" style="stop-color:#FFFFFF;stop-opacity:0.2"/>
		<stop  offset="1" style="stop-color:#FFFFFF;stop-opacity:0"/>
	</linearGradient>
	<path fill="url(#SVGID_1_)" d="M23.9658203,23.3188171l-3.5-9.000001c-0.1484375-0.3847656-0.7832031-0.3847656-0.9316406,0
		L19.229126,15.103179C17.22229,14.1090994,14.2611694,12.9999685,11,12.9999685
		c-3.4267583,0-6.5351567,1.2260742-8.5390625,2.2548828c-1.5175781,0.7792978-2.4609375,2.3173838-2.4609375,4.0131845v0.7319336
		c0,1.1030273,0.8974609,2,2,2h14.5470581l-0.5128784,1.3188477c-0.0693359,0.1767578-0.03125,0.3774414,0.0966797,0.5180664
		c0.1269531,0.140625,0.3232422,0.1958008,0.5068359,0.144043L20,23.019989l3.3623047,0.9609375
		c0.0458984,0.0126953,0.0917969,0.019043,0.1376953,0.019043c0.1386719,0,0.2734375-0.0576172,0.3691406-0.1630859
		C23.9970703,23.6962585,24.0351563,23.495575,23.9658203,23.3188171z M11,11.9999685c3.3085938,0,6-2.6914063,6-5.9999995
		s-2.6914063-6-6-6s-6.0000005,2.6914063-6.0000005,6S7.6914058,11.9999685,11,11.9999685z"/>
</g>
<g>
</g>
<g>
</g>
<g>
</g>
<g>
</g>
<g>
</g>
<g>
</g>
<g>
</g>
<g>
</g>
<g>
</g>
<g>
</g>
<g>
</g>
<g>
</g>
<g>
</g>
<g>
</g>
<g>
</g>
</svg>
